<?xml version="1.0" encoding="utf-8"?>
<!-- Generator: Adobe Illustrator 23.0.5, SVG Export Plug-In . SVG Version: 6.00 Build 0)  -->
<svg version="1.1" xmlns="http://www.w3.org/2000/svg" xmlns:xlink="http://www.w3.org/1999/xlink" x="0px" y="0px"
	 viewBox="0 0 350 50" style="enable-background:new 0 0 350 50;" xml:space="preserve">
<style type="text/css">
	.st0{display:none;}
	.st1{display:inline;}
	.st2{fill:none;}
	.st3{fill:#FF9900;}
	.st4{fill:#014479;}
	.st5{fill:#F39719;}
	.st6{fill-rule:evenodd;clip-rule:evenodd;fill:#FF9900;}
	.st7{fill-rule:evenodd;clip-rule:evenodd;fill:#014479;}
	.st8{fill-rule:evenodd;clip-rule:evenodd;fill:#FFFFFF;}
</style>
<g id="Capa_1" class="st0">
	<g class="st1">
		<path class="st2" d="M166.3,24c-1-1-2.1-1.8-3.4-2.3c-1.3-0.6-2.6-0.9-4.1-0.9c-1.5,0-2.8,0.3-4.1,0.9c-1.3,0.5-2.4,1.3-3.4,2.3
			c-1,1-1.7,2.1-2.2,3.4c-0.6,1.2-0.8,2.6-0.8,4.1c0,1.4,0.3,2.7,0.8,4c0.5,1.3,1.2,2.5,2.2,3.4c1,1,2.1,1.7,3.4,2.2
			c1.3,0.6,2.6,0.9,4.1,0.9c1.5,0,2.9-0.3,4.1-0.9c1.3-0.5,2.4-1.3,3.4-2.3c1-0.9,1.7-2.1,2.3-3.4c0.6-1.3,0.8-2.6,0.8-4
			c0-1.5-0.3-2.8-0.8-4.1C168,26.1,167.2,25,166.3,24z"/>
		<path class="st2" d="M276,22.9c-0.9-0.6-1.9-1.1-2.9-1.5c-1.1-0.4-2.3-0.5-3.4-0.5c-1.1,0-2.2,0.2-3.3,0.5c-1.1,0.4-2,0.9-3,1.5
			c-0.9,0.7-1.7,1.5-2.4,2.5c-0.6,0.9-1.1,1.9-1.4,3H280c-0.4-1.1-0.9-2.1-1.6-3C277.7,24.4,277,23.6,276,22.9z"/>
		<path class="st3" d="M405.7,32.8L405.7,32.8c-0.6-0.7-2-1.4-4-2.2L387.7,26c-0.5-0.2-0.7-0.6-0.7-1.2c0-0.5,0.1-1,0.4-1.3
			c1.7-1.8,4-2.7,6.9-2.7c2.9,0,5.4,1,7.4,3.1c0.4,0.4,0.9,0.8,1.3,1.2c0.4,0.4,1,0.5,1.7,0.5c0.9,0,1.6-0.3,2.2-0.8
			c0.6-0.6,0.8-1.4,0.8-2.3c0-0.8-0.2-1.4-0.5-1.9c-3.7-4.1-8-6.1-13-6.1c-1.7,0-3.3,0.3-4.9,0.8c-1.6,0.5-3.1,1.1-4.5,1.9
			c-1.3,0.9-2.3,1.9-3.1,3.2c-0.8,1.3-1.2,2.6-1.2,4.1c0,2.1,0.7,4,2.2,5.5c0.8,0.7,2.1,1.5,4,2.2l14.1,4.7c0.6,0.3,0.8,0.7,0.8,1.2
			c0,0.4-0.1,0.8-0.4,1.2c-1.8,1.8-4.1,2.7-7,2.7c-3,0-5.5-1-7.5-3.1c-0.4-0.3-0.8-0.7-1.3-1.1c-0.4-0.4-1-0.5-1.7-0.5
			c-0.9,0-1.6,0.3-2.2,0.8c-0.6,0.6-0.9,1.4-0.9,2.3c0,0.7,0.2,1.4,0.7,2c3.5,4,7.8,6,12.9,6c1.6,0,3.3-0.2,4.9-0.7
			c1.6-0.5,3.1-1.2,4.5-2c1.2-0.9,2.3-2,3.1-3.2c0.8-1.2,1.2-2.6,1.2-4.2C408,36.2,407.2,34.4,405.7,32.8z"/>
		<path class="st3" d="M372.7,14.6c-0.9,0-1.6,0.3-2.2,0.9c-0.6,0.6-0.9,1.3-0.9,2.2v15c0,1.3-0.2,2.4-0.7,3.6c-0.4,1.2-1.1,2.2-2,3
			c-0.9,0.9-1.8,1.6-2.9,2.1c-1.1,0.5-2.4,0.7-3.7,0.7c-1.3,0-2.5-0.2-3.7-0.7c-1.1-0.5-2.1-1.2-3-2.1c-0.9-0.8-1.5-1.8-2-3
			c-0.5-1.1-0.7-2.3-0.7-3.6v-15c0-0.9-0.3-1.6-1-2.2c-0.6-0.6-1.3-0.9-2.2-0.9c-0.9,0-1.7,0.3-2.3,0.9c-0.6,0.6-0.8,1.3-0.8,2.2
			v15.2c0,2,0.4,4,1.2,5.8c0.9,1.9,2,3.6,3.5,5c0.6,0.6,1.2,1.1,1.8,1.5c1,0.7,2,1.3,3.2,1.8c2,0.9,4,1.3,6.1,1.3
			c2.3,0,4.5-0.4,6.5-1.3l0.3-0.2c1.5-0.8,2.9-1.8,4.2-3c1.5-1.4,2.5-3,3.3-5c0.8-1.9,1.2-3.8,1.2-6V16.6c-0.1-0.4-0.4-0.8-0.7-1.1
			C374.3,14.9,373.6,14.6,372.7,14.6z"/>
		<path class="st4" d="M281.7,19.4c-3.4-3.3-7.4-5-12-5c-4.7,0-8.6,1.7-12,5c-3.3,3.3-5,7.3-5,12c0,4.7,1.7,8.6,5,12
			c3.3,3.3,7.3,5,12,5c4.2,0,7.9-1.4,11.1-4.1c0.6-0.6,0.9-1.3,0.9-2.2c0-0.9-0.3-1.7-0.9-2.3c-0.5-0.6-1.3-0.9-2.2-0.9
			c-0.8,0-1.5,0.2-2.1,0.7c-0.9,0.8-2,1.4-3.1,1.8c-1.1,0.4-2.3,0.6-3.7,0.6c-1.1,0-2.2-0.2-3.3-0.5c-1.1-0.4-2-0.9-3-1.5
			c-0.9-0.7-1.7-1.5-2.3-2.4c-0.7-1-1.2-2-1.5-3h23.8c0.9,0,1.7-0.3,2.3-0.8c0.6-0.7,0.9-1.4,0.9-2.3c0-2.3-0.4-4.5-1.3-6.4
			C284.6,22.9,283.4,21.1,281.7,19.4z M259.7,28.3c0.3-1.1,0.8-2.1,1.4-3c0.7-1,1.5-1.8,2.4-2.5c0.9-0.6,1.9-1.1,3-1.5
			c1.1-0.4,2.2-0.5,3.3-0.5c1.2,0,2.3,0.2,3.4,0.5c1,0.4,2,0.9,2.9,1.5c0.9,0.7,1.7,1.5,2.4,2.5c0.7,0.9,1.2,1.9,1.6,3H259.7z"/>
		<path class="st4" d="M337,42.1c-4,0-6-2-6-6V20.8h3.7c0.9,0,1.7-0.3,2.3-0.8c0.6-0.7,0.9-1.4,0.9-2.3c0-0.9-0.3-1.6-0.9-2.2
			c-0.6-0.7-1.4-1-2.3-1H331V0l-6.3,7v29.1c0,8.2,4.1,12.3,12.3,12.3c0.9,0,1.6-0.3,2.2-0.9c0.6-0.7,0.8-1.4,0.8-2.3
			c0-0.9-0.3-1.6-0.8-2.1C338.6,42.4,337.9,42.1,337,42.1z"/>
		<path class="st4" d="M243.4,19.2c-0.6-0.6-1.1-1.1-1.7-1.5c-1-0.7-2.1-1.4-3.2-1.9c-2-0.9-4-1.3-6-1.3c-2.4,0-4.5,0.5-6.4,1.4
			l-0.4,0.2c-1.6,0.8-2.9,1.8-4.1,3c-1.5,1.4-2.6,3-3.4,5c-0.8,1.9-1.2,3.8-1.2,6v16.3c0.2,0.4,0.4,0.7,0.8,1.1
			c0.6,0.6,1.3,0.9,2.1,0.9c0.9,0,1.6-0.3,2.3-0.9c0.6-0.7,0.9-1.4,0.9-2.3V30.3c0-1.3,0.2-2.4,0.7-3.6c0.5-1.2,1.2-2.2,2.1-3
			c0.9-0.9,1.9-1.6,3-2.1c1.1-0.5,2.3-0.7,3.7-0.7c1.3,0,2.5,0.2,3.7,0.7c1.1,0.5,2.1,1.2,3,2.1c0.9,0.8,1.5,1.8,2,3
			c0.5,1.1,0.8,2.3,0.8,3.6v14.9c0,0.9,0.3,1.6,0.9,2.3c0.6,0.6,1.4,0.9,2.2,0.9c0.9,0,1.7-0.3,2.3-0.9c0.6-0.7,0.8-1.4,0.8-2.3V30
			c0-2-0.4-4-1.2-5.9C246.1,22.3,244.9,20.6,243.4,19.2z"/>
		<path class="st4" d="M207,19.3c-0.6-0.6-1.1-1.2-1.7-1.6c-1-0.7-2.1-1.3-3.2-1.8c-2-0.9-4-1.3-6-1.3c-2.4,0-4.5,0.4-6.4,1.3
			l-0.4,0.2c-1.5,0.8-2.9,1.8-4.1,3c-1.5,1.3-2.6,3-3.4,5c-0.8,1.9-1.2,3.8-1.2,5.9v16.4c0.2,0.4,0.5,0.8,0.8,1.1
			c0.6,0.6,1.3,0.9,2.1,0.9s1.6-0.3,2.3-0.9c0.6-0.6,0.9-1.4,0.9-2.2V30.3c0-1.3,0.2-2.4,0.7-3.5c0.5-1.2,1.2-2.2,2.1-3.1
			c0.9-0.9,1.9-1.6,3-2.1c1.1-0.5,2.3-0.7,3.7-0.7c1.3,0,2.5,0.2,3.6,0.7c1.2,0.6,2.2,1.3,3,2.1c0.9,0.8,1.5,1.9,2,3.1
			c0.5,1.1,0.8,2.3,0.8,3.5v14.9c0,0.9,0.3,1.6,0.9,2.2c0.7,0.6,1.4,0.9,2.3,0.9c0.9,0,1.6-0.3,2.2-0.9c0.6-0.6,0.8-1.4,0.8-2.2V30
			c0-2-0.4-4-1.1-5.9C209.7,22.3,208.5,20.7,207,19.3z"/>
		<path class="st4" d="M117.4,24c1-1,2.1-1.8,3.4-2.3c1.3-0.6,2.6-0.9,4.1-0.9c1.3,0,2.5,0.2,3.7,0.7c1.2,0.4,2.2,1.1,3.3,2
			c0.6,0.4,1.3,0.6,2,0.6c0.9,0,1.7-0.3,2.3-0.9c0.6-0.6,0.9-1.3,0.9-2.2c0-1-0.4-1.8-1.1-2.4c-3.1-2.8-6.8-4.2-11.1-4.2
			c-4.6,0-8.6,1.7-11.9,5c-3.3,3.3-5,7.3-5,12c0,4.6,1.7,8.6,5,11.9c3.3,3.3,7.3,5,11.9,5c4.3,0,8-1.4,11.1-4.1
			c0.6-0.6,0.9-1.4,0.9-2.3s-0.3-1.7-0.8-2.2c-0.6-0.6-1.4-0.9-2.3-0.9c-0.7,0-1.4,0.2-2,0.6c-1,0.9-2.1,1.6-3.2,2
			c-1.1,0.4-2.3,0.6-3.7,0.6c-1.4,0-2.8-0.3-4.1-0.8c-1.3-0.6-2.4-1.3-3.4-2.3c-1-1-1.7-2.1-2.2-3.4c-0.6-1.2-0.8-2.6-0.8-4
			c0-1.5,0.3-2.9,0.8-4.2C115.7,26,116.4,24.9,117.4,24z"/>
		<path class="st4" d="M170.7,19.5c-3.4-3.3-7.4-5-12-5c-4.7,0-8.6,1.7-12,5c-3.3,3.3-5,7.3-5,12c0,4.6,1.7,8.6,5,11.9
			c3.3,3.3,7.3,5,12,5c4.6,0,8.6-1.7,12-5c3.3-3.3,4.9-7.2,4.9-11.9c0-2.4-0.4-4.5-1.2-6.5C173.6,23,172.4,21.2,170.7,19.5z
			 M168.6,35.5c-0.6,1.3-1.3,2.4-2.3,3.4c-1,1-2.1,1.8-3.4,2.3c-1.3,0.6-2.6,0.9-4.1,0.9c-1.5,0-2.8-0.3-4.1-0.9
			c-1.3-0.5-2.4-1.3-3.4-2.2c-1-1-1.7-2.1-2.2-3.4c-0.6-1.3-0.8-2.6-0.8-4c0-1.5,0.3-2.8,0.8-4.1c0.5-1.3,1.2-2.4,2.2-3.4
			c1-1,2.1-1.8,3.4-2.3c1.3-0.6,2.6-0.9,4.1-0.9c1.5,0,2.9,0.3,4.1,0.9c1.3,0.5,2.4,1.3,3.4,2.3c1,1,1.7,2.1,2.3,3.4
			c0.6,1.2,0.8,2.6,0.8,4.1C169.4,32.9,169.1,34.2,168.6,35.5z"/>
		<path class="st4" d="M299.9,24c1-1,2.1-1.8,3.4-2.3c1.3-0.6,2.6-0.9,4.1-0.9c1.3,0,2.5,0.2,3.7,0.7c1.2,0.4,2.2,1.1,3.3,2
			c0.6,0.4,1.3,0.6,2,0.6c0.9,0,1.7-0.3,2.3-0.9c0.6-0.6,0.9-1.3,0.9-2.2c0-1-0.4-1.8-1.1-2.4c-3.1-2.8-6.8-4.2-11.1-4.2
			c-4.6,0-8.6,1.7-11.9,5c-3.3,3.3-5,7.3-5,12c0,4.6,1.7,8.6,5,11.9c3.3,3.3,7.3,5,11.9,5c4.3,0,8-1.4,11.1-4.1
			c0.6-0.6,0.9-1.4,0.9-2.3s-0.3-1.7-0.8-2.2c-0.6-0.6-1.4-0.9-2.3-0.9c-0.7,0-1.4,0.2-2,0.6c-1,0.9-2.1,1.6-3.2,2
			c-1.1,0.4-2.3,0.6-3.7,0.6c-1.4,0-2.8-0.3-4.1-0.8c-1.3-0.6-2.4-1.3-3.4-2.3c-1-1-1.7-2.1-2.2-3.4c-0.6-1.2-0.8-2.6-0.8-4
			c0-1.5,0.3-2.9,0.8-4.2C298.2,26,298.9,24.9,299.9,24z"/>
	</g>
</g>
<g id="Capa_2">
	<g>
		<path class="st2" d="M173.4,23.7c-0.9-0.6-1.9-1.1-2.9-1.5c-1.1-0.4-2.3-0.6-3.5-0.6c-1.1,0-2.3,0.2-3.4,0.6
			c-1.1,0.4-2.1,0.9-3,1.5c-0.9,0.7-1.7,1.5-2.4,2.5c-0.6,0.9-1.1,1.9-1.4,3h20.6c-0.4-1.1-0.9-2.1-1.6-3
			C175.1,25.2,174.3,24.4,173.4,23.7z"/>
		<path class="st2" d="M62.1,24.9c-1-1-2.2-1.8-3.5-2.3c-1.3-0.6-2.7-0.9-4.2-0.9c-1.5,0-2.8,0.3-4.1,0.9c-1.3,0.5-2.5,1.3-3.5,2.3
			c-1,1-1.7,2.2-2.2,3.5c-0.6,1.2-0.9,2.6-0.9,4.1c0,1.4,0.3,2.8,0.9,4.1c0.5,1.3,1.2,2.5,2.2,3.5c1,1,2.2,1.7,3.5,2.3
			c1.3,0.6,2.6,0.9,4.1,0.9c1.5,0,2.9-0.3,4.2-0.9c1.3-0.5,2.5-1.3,3.5-2.3c1-0.9,1.7-2.1,2.3-3.4c0.6-1.3,0.9-2.7,0.9-4.1
			c0-1.5-0.3-2.9-0.9-4.1C63.8,27,63.1,25.9,62.1,24.9z"/>
		<path class="st5" d="M305,33.8c-0.7-0.7-2.1-1.4-4.1-2.2l-14.3-4.7c-0.5-0.2-0.7-0.6-0.7-1.2c0-0.5,0.2-1,0.5-1.3
			c1.7-1.8,4.1-2.7,7-2.7c3,0,5.5,1,7.5,3.1c0.4,0.4,0.9,0.8,1.4,1.2c0.4,0.4,1,0.6,1.7,0.6c0.9,0,1.6-0.3,2.3-0.9
			c0.6-0.6,0.9-1.4,0.9-2.3c0-0.8-0.2-1.4-0.6-2c-3.7-4.1-8.1-6.2-13.2-6.2c-1.7,0-3.4,0.3-5,0.9c-1.6,0.5-3.2,1.1-4.5,2
			c-1.3,0.9-2.4,1.9-3.2,3.2c-0.8,1.3-1.3,2.7-1.3,4.2c0,2.1,0.8,4,2.3,5.6c0.8,0.7,2.1,1.5,4,2.2l14.3,4.7c0.6,0.3,0.9,0.7,0.9,1.2
			c0,0.4-0.2,0.9-0.5,1.3c-1.8,1.8-4.2,2.8-7.1,2.8c-3,0-5.6-1.1-7.6-3.2c-0.4-0.3-0.8-0.7-1.3-1.1c-0.4-0.4-1-0.6-1.7-0.6
			c-0.9,0-1.6,0.3-2.2,0.8c-0.6,0.6-0.9,1.4-0.9,2.3c0,0.7,0.2,1.4,0.7,2c3.6,4.1,7.9,6.1,13.1,6.1c1.6,0,3.3-0.2,5-0.7
			c1.6-0.5,3.2-1.2,4.5-2c1.2-0.9,2.3-2,3.2-3.2c0.8-1.2,1.2-2.7,1.2-4.3c0-2.1-0.8-4-2.3-5.5H305z"/>
		<path class="st5" d="M271.4,15.3c-0.9,0-1.6,0.3-2.3,1c-0.6,0.6-1,1.3-1,2.2v15.2c0,1.3-0.3,2.5-0.8,3.6c-0.4,1.2-1.1,2.2-2.1,3.1
			c-0.9,0.9-1.9,1.6-3,2.1c-1.1,0.5-2.4,0.8-3.8,0.8c-1.3,0-2.5-0.3-3.7-0.8c-1.1-0.5-2.1-1.3-3-2.2c-0.9-0.8-1.6-1.8-2.1-3
			c-0.5-1.1-0.7-2.3-0.7-3.6V18.5c0-0.9-0.3-1.6-1-2.2c-0.6-0.6-1.3-1-2.2-1c-0.9,0-1.7,0.3-2.4,1c-0.6,0.6-0.9,1.3-0.9,2.2v15.4
			c0,2.1,0.5,4,1.3,5.9c0.9,1.9,2,3.6,3.5,5.1c0.6,0.6,1.2,1.1,1.8,1.6c1,0.7,2.1,1.3,3.2,1.8c2,0.9,4,1.3,6.1,1.3
			c2.4,0,4.6-0.4,6.6-1.3l0.4-0.2c1.5-0.8,3-1.8,4.2-3.1c1.5-1.4,2.6-3.1,3.3-5c0.8-1.9,1.3-3.9,1.3-6V17.4
			c-0.1-0.4-0.4-0.8-0.8-1.1C273.1,15.6,272.3,15.3,271.4,15.3z"/>
		<path class="st4" d="M179.2,20.2c-3.4-3.4-7.5-5-12.2-5c-4.7,0-8.8,1.7-12.1,5c-3.4,3.4-5,7.4-5,12.2c0,4.7,1.7,8.8,5,12.1
			c3.4,3.4,7.4,5,12.1,5c4.3,0,8-1.4,11.2-4.2c0.6-0.6,1-1.4,1-2.3c0-0.9-0.3-1.7-1-2.3c-0.5-0.6-1.3-0.9-2.3-0.9
			c-0.8,0-1.5,0.3-2.1,0.8c-0.9,0.8-2,1.5-3.1,1.9c-1.1,0.4-2.4,0.7-3.7,0.7c-1.1,0-2.3-0.2-3.4-0.6c-1.1-0.4-2.1-0.9-3-1.5
			c-0.9-0.7-1.7-1.5-2.3-2.5c-0.7-1-1.2-2-1.5-3.1h24.1c0.9,0,1.7-0.3,2.4-0.9c0.6-0.7,0.9-1.4,0.9-2.3c0-2.4-0.4-4.6-1.3-6.5
			C182,23.8,180.8,21.9,179.2,20.2z M156.8,29.2c0.3-1.1,0.8-2.1,1.4-3c0.7-1,1.5-1.8,2.4-2.5c0.9-0.6,1.9-1.1,3-1.5
			c1.1-0.4,2.2-0.6,3.4-0.6c1.2,0,2.3,0.2,3.5,0.6c1,0.4,2,0.9,2.9,1.5c0.9,0.7,1.7,1.5,2.4,2.5c0.7,0.9,1.2,1.9,1.6,3H156.8z"/>
		<path class="st4" d="M235.2,43.2c-4.1,0-6.1-2-6.1-6.1V21.6h3.8c0.9,0,1.7-0.3,2.3-0.9c0.6-0.7,0.9-1.4,0.9-2.3
			c0-0.9-0.3-1.6-0.9-2.3c-0.6-0.7-1.4-1-2.3-1h-3.8V0.5l-6.4,7.1v29.5c0,8.3,4.2,12.5,12.5,12.5c0.9,0,1.6-0.3,2.3-1
			c0.6-0.7,0.9-1.4,0.9-2.3c0-0.9-0.3-1.6-0.9-2.2C236.9,43.5,236.1,43.2,235.2,43.2z"/>
		<path class="st4" d="M140.3,20c-0.6-0.6-1.2-1.1-1.8-1.6c-1-0.7-2.1-1.4-3.3-1.9c-2-0.9-4-1.3-6.1-1.3c-2.4,0-4.6,0.5-6.5,1.4
			l-0.4,0.2c-1.6,0.8-3,1.8-4.2,3.1c-1.5,1.4-2.6,3.1-3.4,5c-0.8,1.9-1.3,3.9-1.3,6v16.5c0.2,0.4,0.4,0.7,0.8,1.1
			c0.6,0.6,1.3,1,2.2,1c0.9,0,1.7-0.3,2.4-1c0.6-0.7,0.9-1.4,0.9-2.3V31.2c0-1.3,0.2-2.5,0.7-3.6c0.5-1.2,1.2-2.2,2.1-3.1
			c0.9-0.9,1.9-1.6,3-2.1c1.1-0.5,2.3-0.8,3.7-0.8c1.3,0,2.5,0.3,3.7,0.8c1.1,0.5,2.1,1.3,3,2.2c0.9,0.8,1.5,1.8,2,3
			c0.5,1.1,0.8,2.3,0.8,3.6v15.1c0,0.9,0.3,1.6,0.9,2.3c0.6,0.6,1.4,1,2.3,1c0.9,0,1.7-0.3,2.3-1c0.6-0.7,0.9-1.4,0.9-2.3V30.9
			c0-2.1-0.4-4.1-1.2-5.9C143,23.1,141.8,21.4,140.3,20z"/>
		<path class="st4" d="M103.4,20.1c-0.6-0.6-1.2-1.2-1.8-1.6c-1-0.7-2.1-1.4-3.3-1.9c-2-0.9-4-1.3-6.1-1.3c-2.4,0-4.6,0.5-6.5,1.4
			l-0.5,0.2c-1.5,0.8-2.9,1.9-4.1,3.1c-1.5,1.3-2.6,3-3.4,5c-0.8,1.9-1.3,3.9-1.3,6v16.6c0.2,0.4,0.5,0.8,0.8,1.1
			c0.6,0.6,1.3,0.9,2.2,0.9c0.9,0,1.7-0.3,2.4-0.9c0.6-0.6,0.9-1.4,0.9-2.3V31.2c0-1.3,0.2-2.5,0.7-3.6c0.5-1.2,1.2-2.3,2.1-3.1
			c0.9-0.9,1.9-1.6,3-2.2c1.1-0.5,2.4-0.7,3.7-0.7c1.3,0,2.5,0.2,3.7,0.7c1.2,0.6,2.2,1.3,3.1,2.2c0.9,0.8,1.5,1.9,2,3.1
			c0.5,1.1,0.8,2.3,0.8,3.6v15.1c0,0.9,0.3,1.6,0.9,2.3c0.7,0.6,1.4,0.9,2.3,0.9c0.9,0,1.7-0.3,2.3-0.9c0.6-0.6,0.9-1.4,0.9-2.3
			V30.9c0-2.1-0.4-4.1-1.2-5.9C106.1,23.2,104.9,21.5,103.4,20.1z"/>
		<path class="st4" d="M12.5,24.9c1-1,2.2-1.8,3.5-2.3c1.3-0.6,2.7-0.9,4.1-0.9c1.3,0,2.6,0.2,3.7,0.7c1.2,0.4,2.3,1.1,3.3,2
			c0.6,0.4,1.3,0.7,2.1,0.7c0.9,0,1.7-0.3,2.4-0.9c0.6-0.6,0.9-1.3,0.9-2.2c0-1-0.4-1.8-1.1-2.4c-3.2-2.8-6.9-4.3-11.3-4.3
			c-4.7,0-8.7,1.7-12.1,5.1c-3.4,3.4-5,7.4-5,12.2c0,4.7,1.7,8.7,5,12.1c3.4,3.4,7.4,5,12.1,5c4.4,0,8.1-1.4,11.3-4.2
			c0.6-0.6,0.9-1.4,0.9-2.4c0-0.9-0.3-1.7-0.9-2.3c-0.6-0.6-1.4-0.9-2.3-0.9c-0.7,0-1.4,0.2-2,0.7c-1,0.9-2.1,1.6-3.3,2
			c-1.1,0.4-2.4,0.7-3.7,0.7c-1.4,0-2.8-0.3-4.1-0.9c-1.3-0.6-2.5-1.3-3.5-2.3c-1-1-1.7-2.1-2.2-3.5c-0.6-1.2-0.9-2.6-0.9-4.1
			c0-1.5,0.3-3,0.9-4.2C10.8,26.9,11.5,25.8,12.5,24.9z"/>
		<path class="st4" d="M66.6,20.3c-3.4-3.4-7.5-5.1-12.2-5.1c-4.7,0-8.8,1.7-12.1,5.1c-3.4,3.4-5,7.4-5,12.2c0,4.7,1.7,8.7,5,12.1
			c3.4,3.4,7.4,5,12.1,5c4.7,0,8.8-1.7,12.2-5c3.3-3.3,5-7.3,5-12.1c0-2.4-0.4-4.6-1.3-6.6C69.5,23.9,68.3,22,66.6,20.3z M64.4,36.5
			c-0.6,1.3-1.3,2.5-2.3,3.4c-1,1-2.2,1.8-3.5,2.3c-1.3,0.6-2.7,0.9-4.2,0.9c-1.5,0-2.8-0.3-4.1-0.9C49,41.7,47.9,41,46.9,40
			c-1-1-1.7-2.1-2.2-3.5c-0.6-1.3-0.9-2.7-0.9-4.1c0-1.5,0.3-2.9,0.9-4.1c0.5-1.3,1.2-2.5,2.2-3.5c1-1,2.2-1.8,3.5-2.3
			c1.3-0.6,2.6-0.9,4.1-0.9c1.5,0,2.9,0.3,4.2,0.9c1.3,0.5,2.5,1.3,3.5,2.3c1,1,1.7,2.2,2.3,3.5c0.6,1.2,0.9,2.6,0.9,4.1
			C65.3,33.9,65,35.2,64.4,36.5z"/>
		<path class="st4" d="M197.6,24.9c1-1,2.2-1.8,3.5-2.3c1.3-0.6,2.7-0.9,4.1-0.9c1.3,0,2.6,0.2,3.7,0.7c1.2,0.4,2.3,1.1,3.3,2
			c0.6,0.4,1.3,0.7,2.1,0.7c0.9,0,1.7-0.3,2.4-0.9c0.6-0.6,0.9-1.3,0.9-2.2c0-1-0.4-1.8-1.1-2.4c-3.2-2.8-6.9-4.3-11.3-4.3
			c-4.7,0-8.7,1.7-12.1,5.1c-3.4,3.4-5,7.4-5,12.2c0,4.7,1.7,8.7,5,12.1c3.4,3.4,7.4,5,12.1,5c4.4,0,8.1-1.4,11.3-4.2
			c0.6-0.6,0.9-1.4,0.9-2.4c0-0.9-0.3-1.7-0.9-2.3c-0.6-0.6-1.4-0.9-2.3-0.9c-0.7,0-1.4,0.2-2,0.7c-1,0.9-2.1,1.6-3.3,2
			c-1.1,0.4-2.4,0.7-3.7,0.7c-1.4,0-2.8-0.3-4.1-0.9c-1.3-0.6-2.5-1.3-3.5-2.3c-1-1-1.7-2.1-2.2-3.5c-0.6-1.2-0.9-2.6-0.9-4.1
			c0-1.5,0.3-3,0.9-4.2C195.9,26.9,196.6,25.8,197.6,24.9z"/>
		<path class="st4" d="M319.4,0.5c-1.5,0-2.8,0.6-3.8,1.5V0.8h-3.5v13.8h3.5V6.5c0-1.8,1.2-3,2.9-3c1.7,0,2.9,1.2,2.9,3v8.1h3.5V5.8
			C324.9,2.8,322.7,0.5,319.4,0.5z"/>
		<polygon class="st4" points="343.4,0.8 341,9.5 338,0.8 335.2,0.8 332.2,9.5 329.8,0.8 326.1,0.8 330.3,14.6 333.4,14.6 
			336.5,5.6 339.6,14.6 342.8,14.6 347,0.8 		"/>
	</g>
</g>
<g id="Capa_3" class="st0">
	<g class="st1">
		<g>
			<path class="st6" d="M9.1,50C35.2,49.4,48.8,35,50,6.8v36.4c0,4.5-2.3,6.8-6.8,6.8L9.1,50z"/>
			<path class="st7" d="M9.1,50l-2.3,0C2.3,50,0,47.7,0,43.2V6.8C0,2.3,2.3,0,6.8,0h36.4C47.7,0,50,2.3,50,6.8
				C48.8,35,35.2,49.4,9.1,50z"/>
		</g>
		<g>
			<g>
				<path class="st8" d="M26.7,23.9c-0.4,0.4-0.9,0.6-1.5,0.6c-0.5,0-1-0.2-1.4-0.5c-0.7-0.6-1.5-1-2.2-1.3
					c-0.8-0.3-1.6-0.5-2.5-0.5c-1,0-1.9,0.2-2.8,0.6c-0.9,0.4-1.6,0.9-2.3,1.5c-0.6,0.6-1.1,1.4-1.5,2.2c-0.4,0.9-0.6,1.8-0.6,2.8
					c0,1,0.2,1.9,0.6,2.8c0.3,0.9,0.8,1.6,1.5,2.3c0.7,0.6,1.4,1.1,2.3,1.5c0.9,0.4,1.8,0.5,2.8,0.5c0.9,0,1.7-0.1,2.5-0.4
					c0.7-0.3,1.5-0.8,2.1-1.4c0.4-0.3,0.8-0.4,1.3-0.4c0.6,0,1.1,0.2,1.5,0.6c0.4,0.4,0.6,0.9,0.6,1.6c0,0.6-0.2,1.1-0.7,1.6
					c-2.1,1.8-4.6,2.7-7.4,2.7c-3.2,0-5.8-1.1-8.1-3.3c-2.2-2.2-3.3-4.9-3.3-8.1c0-3.1,1.1-5.8,3.3-8.1c2.2-2.2,4.9-3.3,8.1-3.3
					c2.9,0,5.3,0.9,7.4,2.8c0.5,0.4,0.7,1,0.7,1.6C27.3,23,27.1,23.5,26.7,23.9z"/>
			</g>
			<g>
				<polygon class="st8" points="29.4,7.7 32.1,7.7 36.1,12.9 42.2,6.1 37.1,14.2 42.3,21 39.5,21 35.9,16.2 33,20.9 29.1,20.9 
					34.7,14.6 				"/>
			</g>
		</g>
	</g>
</g>
</svg>
